//// ------------------------------------------------------
//// THIS FILE WAS AUTOMATICALLY GENERATED (DO NOT MODIFY)
//// ------------------------------------------------------

Table bodies {
  id String [pk]
  acronym String
  name String [not null]
  type BodyType [not null]
  roles roles [not null]
  createdAt DateTime [default: `now()`, not null]
  updatedAt DateTime [not null]
}

Table contributions {
  id String [pk]
  endDate DateTime
  startDate DateTime
  countryId String
  personId String [not null]
  roleId String [not null]
  workingGroupId String
  country countries
  person persons [not null]
  role roles [not null]
  workingGroup working_groups
  createdAt DateTime [default: `now()`, not null]
  updatedAt DateTime [not null]
}

Table countries {
  id String [pk]
  code String [not null]
  consortiumName String
  description String
  endDate DateTime
  logo String
  marketplaceId Int
  name String [not null]
  startDate DateTime
  type CountryType [not null]
  contributions contributions [not null]
  institutions institutions [not null]
  outreach outreach [not null]
  reports reports [not null]
  services services [not null]
  software software [not null]
  users users [not null]
  createdAt DateTime [default: `now()`, not null]
  updatedAt DateTime [not null]
}

Table event_reports {
  id String [pk]
  dariahCommissionedEvent String
  largeMeetings Int
  mediumMeetings Int
  reusableOutcomes String
  smallMeetings Int
  veryLargeMeetings Int
  reportId String [unique, not null]
  report reports [not null]
  createdAt DateTime [default: `now()`, not null]
  updatedAt DateTime [not null]
}

Table institutions {
  id String [pk]
  endDate DateTime
  name String [not null]
  ror String
  startDate DateTime
  types InstitutionType[] [not null]
  url String[] [not null]
  countries countries [not null]
  persons persons [not null]
  services institution_service [not null]
  createdAt DateTime [default: `now()`, not null]
  updatedAt DateTime [not null]
}

Table institution_service {
  role InstitutionServiceRole [not null]
  institutionId String [not null]
  serviceId String [not null]
  institution institutions [not null]
  service services [not null]

  indexes {
    (institutionId, role, serviceId) [unique]
  }
}

Table outreach {
  id String [pk]
  endDate DateTime
  name String [not null]
  startDate DateTime
  type OutreachType [not null]
  url String [not null]
  countryId String
  country countries
  reports outreach_reports [not null]
  createdAt DateTime [default: `now()`, not null]
  updatedAt DateTime [not null]
}

Table outreach_reports {
  id String [pk]
  outreachId String [not null]
  reportId String [not null]
  kpis outreach_kpis [not null]
  outreach outreach [not null]
  report reports [not null]
  createdAt DateTime [default: `now()`, not null]
  updatedAt DateTime [not null]
}

Table outreach_kpis {
  id String [pk]
  unit OutreachKpiType [not null]
  value Int [not null]
  outreachReportId String [not null]
  outreachReport outreach_reports [not null]
  createdAt DateTime [default: `now()`, not null]
  updatedAt DateTime [not null]
}

Table persons {
  id String [pk]
  email String
  name String [not null]
  orcid String
  contributions contributions [not null]
  institutions institutions [not null]
  users users [not null]
  createdAt DateTime [default: `now()`, not null]
  updatedAt DateTime [not null]
}

Table projects {
  id String [pk]
  amount Decimal
  funders String
  name String [not null]
  projectMonths Int
  scope ProjectScope
  startDate DateTime
  totalAmount Decimal
  reportId String [not null]
  report reports [not null]
  createdAt DateTime [default: `now()`, not null]
  updatedAt DateTime [not null]
}

Table reports {
  id String [pk]
  comments Json
  contributionsCount Int
  operationalCost Decimal
  operationalCostDetail Json
  operationalCostThreshold Decimal
  status ReportStatus [not null, default: 'draft']
  countryId String [not null]
  reportCampaignId String [not null]
  country countries [not null]
  eventReport event_reports
  outreachReports outreach_reports [not null]
  projectsFundingLeverages projects [not null]
  reportCampaign report_campaigns [not null]
  researchPolicyDevelopments research_policy_developments [not null]
  serviceReports service_reports [not null]
  createdAt DateTime [default: `now()`, not null]
  updatedAt DateTime [not null]

  indexes {
    (reportCampaignId, countryId) [unique]
  }
}

Table research_policy_developments {
  id String [pk]
  level ResearchPolicyLevel [not null]
  name String [not null]
  outcome String
  reportId String [not null]
  report reports [not null]
  createdAt DateTime [default: `now()`, not null]
  updatedAt DateTime [not null]
}

Table roles {
  id String [pk]
  name String [not null]
  type RoleType [not null]
  bodies bodies [not null]
  contributions contributions [not null]
  createdAt DateTime [default: `now()`, not null]
  updatedAt DateTime [not null]
}

Table services {
  id String [pk]
  agreements String
  audience ServiceAudience
  comment String
  dariahBranding Boolean
  eoscOnboarding Boolean
  marketplaceStatus ServiceMarketplaceStatus
  marketplaceId String
  monitoring Boolean
  name String [not null]
  privateSupplier Boolean
  status ServiceStatus
  technicalContact String
  technicalReadinessLevel Int
  type ServiceType
  url String[] [not null]
  valueProposition String
  countries countries [not null]
  institutions institution_service [not null]
  reports service_reports [not null]
  createdAt DateTime [default: `now()`, not null]
  updatedAt DateTime [not null]
}

Table service_reports {
  id String [pk]
  reportId String [not null]
  serviceId String [not null]
  kpis service_kpis [not null]
  report reports [not null]
  service services [not null]
  createdAt DateTime [default: `now()`, not null]
  updatedAt DateTime [not null]
}

Table service_kpis {
  id String [pk]
  unit ServiceKpiType [not null]
  value Int [not null]
  serviceReportId String [not null]
  serviceReport service_reports [not null]
  createdAt DateTime [default: `now()`, not null]
  updatedAt DateTime [not null]
}

Table software {
  id String [pk]
  comment String
  name String [not null]
  marketplaceStatus SoftwareMarketplaceStatus
  marketplaceId String
  status SoftwareStatus
  url String[] [not null]
  countries countries [not null]
  createdAt DateTime [default: `now()`, not null]
  updatedAt DateTime [not null]
}

Table working_groups {
  id String [pk]
  contactEmail String
  endDate DateTime
  mailingList String
  marketplaceId Int
  memberTracking String
  name String [not null]
  slug String [not null]
  startDate DateTime
  chairs contributions [not null]
  outreach working_group_outreach [not null]
  reports working_group_reports [not null]
  createdAt DateTime [default: `now()`, not null]
  updatedAt DateTime [not null]
}

Table working_group_reports {
  id String [pk]
  comments Json
  facultativeQuestionsList Json
  members Int
  narrativeQuestionsList Json
  status ReportStatus [not null, default: 'draft']
  reportCampaignId String [not null]
  workingGroupId String [not null]
  reportCampaign report_campaigns [not null]
  workingGroup working_groups [not null]
  workingGroupEvents working_group_events [not null]
  createdAt DateTime [default: `now()`, not null]
  updatedAt DateTime [not null]

  indexes {
    (reportCampaignId, workingGroupId) [unique]
  }
}

Table working_group_events {
  id String [pk]
  date DateTime
  role WorkingGroupEventRole [not null]
  title String [not null]
  url String [not null]
  reportId String [not null]
  report working_group_reports [not null]
}

Table working_group_outreach {
  id String [pk]
  endDate DateTime
  name String [not null]
  startDate DateTime
  type WorkingGroupOutreachType [not null]
  url String [not null]
  workingGroupId String [not null]
  workingGroup working_groups [not null]
  createdAt DateTime [default: `now()`, not null]
  updatedAt DateTime [not null]
}

Table event_size_values {
  id String [pk]
  annualValue Int [not null]
  type EventSize [not null]
  reportCampaignId String [not null]
  reportCampaign report_campaigns [not null]
  createdAt DateTime [default: `now()`, not null]
  updatedAt DateTime [not null]

  indexes {
    (reportCampaignId, type) [unique]
  }
}

Table outreach_type_values {
  id String [pk]
  annualValue Int [not null]
  type OutreachType [not null]
  reportCampaignId String [not null]
  reportCampaign report_campaigns [not null]
  createdAt DateTime [default: `now()`, not null]
  updatedAt DateTime [not null]

  indexes {
    (reportCampaignId, type) [unique]
  }
}

Table role_type_values {
  id String [pk]
  annualValue Int [not null]
  type RoleType [not null]
  reportCampaignId String [not null]
  reportCampaign report_campaigns [not null]
  createdAt DateTime [default: `now()`, not null]
  updatedAt DateTime [not null]

  indexes {
    (reportCampaignId, type) [unique]
  }
}

Table service_size_values {
  id String [pk]
  annualValue Int [not null]
  type ServiceSize [not null]
  reportCampaignId String [not null]
  reportCampaign report_campaigns [not null]
  createdAt DateTime [default: `now()`, not null]
  updatedAt DateTime [not null]

  indexes {
    (reportCampaignId, type) [unique]
  }
}

Table report_campaigns {
  id String [pk]
  facultativeQuestionsListTemplate Json
  narrativeQuestionsListTemplate Json
  serviceSizeThresholds Json [not null]
  status ReportCampaignStatus [not null, default: 'in_progress']
  year Int [unique, not null]
  reports reports [not null]
  workingGroupReports working_group_reports [not null]
  eventSizeValues event_size_values [not null]
  outreachTypeValues outreach_type_values [not null]
  roleTypeValues role_type_values [not null]
  serviceSizeValues service_size_values [not null]
  createdAt DateTime [default: `now()`, not null]
  updatedAt DateTime [not null]
}

Table users {
  id String [pk]
  email String [unique, not null]
  name String [not null]
  password String [not null]
  role UserRole [not null, default: 'contributor']
  countryId String
  personId String
  country countries
  person persons
  sessions sessions [not null]
}

Table sessions {
  id String [pk]
  secretHash Bytes [not null]
  createdAt DateTime [not null]
  lastVerifiedAt DateTime [not null]
  userId String [not null]
  user users [not null]
}

Table BodyToRole {
  rolesId String [ref: > roles.id]
  bodiesId String [ref: > bodies.id]
}

Table CountryToInstitution {
  institutionsId String [ref: > institutions.id]
  countriesId String [ref: > countries.id]
}

Table CountryToService {
  servicesId String [ref: > services.id]
  countriesId String [ref: > countries.id]
}

Table CountryToSoftware {
  softwareId String [ref: > software.id]
  countriesId String [ref: > countries.id]
}

Table InstitutionToPerson {
  personsId String [ref: > persons.id]
  institutionsId String [ref: > institutions.id]
}

Enum BodyType {
  bod
  dco
  ga
  jrc
  ncc
  sb
  smt
}

Enum CountryType {
  cooperating_partnership
  member_country
  other
}

Enum InstitutionType {
  cooperating_partner
  national_coordinating_institution
  national_representative_institution
  other
  partner_institution
}

Enum InstitutionServiceRole {
  content_provider
  service_owner
  service_provider
  technical_contact
}

Enum OutreachType {
  national_social_media
  national_website
  social_media
}

Enum OutreachKpiType {
  engagement
  followers
  impressions
  mention
  new_content
  page_views
  posts
  reach
  subscribers
  unique_visitors
  views
  watch_time
}

Enum ProjectScope {
  eu
  national
  regional
}

Enum ReportStatus {
  draft
  final
}

Enum ResearchPolicyLevel {
  eu
  international
  institutional
  national
  regional
}

Enum RoleType {
  dco_member
  director
  national_coordinator
  national_coordinator_deputy
  national_representative
  national_representative_deputy
  jrc_chair
  jrc_member
  scientific_board_member
  smt_member
  wg_chair
  wg_member
  national_consortium_contact
  cooperating_partner_contact
  ncc_chair
}

Enum ServiceAudience {
  dariah_team
  global
  national_local
}

Enum ServiceMarketplaceStatus {
  no
  not_applicable
  yes
}

Enum ServiceStatus {
  discontinued
  in_preparation
  live
  needs_review
  to_be_discontinued
}

Enum ServiceType {
  community
  core
  internal
}

Enum ServiceKpiType {
  downloads
  hits
  items
  jobs_processed
  page_views
  registered_users
  searches
  sessions
  unique_users
  visits
  websites_hosted
}

Enum SoftwareMarketplaceStatus {
  added_as_external_id
  added_as_item
  no
  not_applicable
}

Enum SoftwareStatus {
  maintained
  needs_review
  not_maintained
}

Enum WorkingGroupEventRole {
  organiser
  presenter
}

Enum WorkingGroupOutreachType {
  website
  social_media
}

Enum EventSize {
  dariah_commissioned
  large
  medium
  small
  very_large
}

Enum ServiceSize {
  core
  large
  medium
  small
}

Enum ReportCampaignStatus {
  in_progress
  done
}

Enum UserRole {
  admin
  contributor
  national_coordinator
}

Ref: contributions.countryId > countries.id

Ref: contributions.personId > persons.id [delete: Cascade]

Ref: contributions.roleId > roles.id [delete: Cascade]

Ref: contributions.workingGroupId > working_groups.id

Ref: event_reports.reportId - reports.id [delete: Cascade]

Ref: institution_service.institutionId > institutions.id [delete: Cascade]

Ref: institution_service.serviceId > services.id [delete: Cascade]

Ref: outreach.countryId > countries.id [delete: Cascade]

Ref: outreach_reports.outreachId > outreach.id [delete: Cascade]

Ref: outreach_reports.reportId > reports.id [delete: Cascade]

Ref: outreach_kpis.outreachReportId > outreach_reports.id [delete: Cascade]

Ref: projects.reportId > reports.id [delete: Cascade]

Ref: reports.countryId > countries.id [delete: Cascade]

Ref: reports.reportCampaignId > report_campaigns.id

Ref: research_policy_developments.reportId > reports.id [delete: Cascade]

Ref: service_reports.reportId > reports.id [delete: Cascade]

Ref: service_reports.serviceId > services.id [delete: Cascade]

Ref: service_kpis.serviceReportId > service_reports.id [delete: Cascade]

Ref: working_group_reports.reportCampaignId > report_campaigns.id

Ref: working_group_reports.workingGroupId > working_groups.id

Ref: working_group_events.reportId > working_group_reports.id

Ref: working_group_outreach.workingGroupId > working_groups.id

Ref: event_size_values.reportCampaignId > report_campaigns.id

Ref: outreach_type_values.reportCampaignId > report_campaigns.id

Ref: role_type_values.reportCampaignId > report_campaigns.id

Ref: service_size_values.reportCampaignId > report_campaigns.id

Ref: users.countryId > countries.id

Ref: users.personId > persons.id

Ref: sessions.userId > users.id [delete: Cascade]